# xmcd CD database file
#
# Track frame offsets:
#	150
#	14134
#	34215
#	60147
#	78847
#	92165
#	105972
#	127387
#	163462
#	187060
#	212937
#	242809
#	278152
#	309980
#
# Disc length: 4615 seconds
#
# Revision: 3
# Processed by: cddbd v1.5.2PL0 Copyright (c) Steve Scherf et al.
# Submitted via: CDex 1.51
#
DISCID=c712050e
DTITLE=Janis Joplin - Joplin In Concert
DYEAR=1972
DGENRE=Rock
TTITLE0=Down On Me - Big Brother and The Holding Co.
TTITLE1=Bye, Bye Baby - Big Brother and The Holding Co.
TTITLE2=All Is Loneliness - Big Brother and The Holding Co.
TTITLE3=Piece Of My Heart - Big Brother and The Holding Co.
TTITLE4=Road Block - Big Brother and The Holding Co.
TTITLE5=Flower In The Sun - Big Brother and The Holding Co.
TTITLE6=Summertime - Big Brother and The Holding Co.
TTITLE7=Ego Rock - Big Brother and The Holding Co.
TTITLE8=Half Moon - Full Tilt Boogie Band
TTITLE9=Kozmic Blues - Full Tilt Boogie Band
TTITLE10=Move Over - Full Tilt Boogie Band
TTITLE11=Try (Just A Little Bit Harder) - Full Tilt Boogie Band
TTITLE12=Get It While You Can - Full Tilt Boogie Band
TTITLE13=Ball And Chain - Full Tilt Boogie Band
EXTD=YEAR: 1972
EXTT0=
EXTT1=
EXTT2=
EXTT3=
EXTT4=
EXTT5=
EXTT6=
EXTT7=
EXTT8=
EXTT9=
EXTT10=
EXTT11=
EXTT12=
EXTT13=
PLAYORDER=
